<?xml version="1.0" encoding="UTF-8" standalone="no"?>
<svg
   ffdec:objectType="shape"
   height="114.26772"
   width="114.26772"
   version="1.1"
   id="svg5"
   sodipodi:docname="fat_others.svg"
   inkscape:version="1.3 (0e150ed6c4, 2023-07-21)"
   xmlns:inkscape="http://www.inkscape.org/namespaces/inkscape"
   xmlns:sodipodi="http://sodipodi.sourceforge.net/DTD/sodipodi-0.dtd"
   xmlns="http://www.w3.org/2000/svg"
   xmlns:svg="http://www.w3.org/2000/svg"
   xmlns:ffdec="https://www.free-decompiler.com/flash">
  <sodipodi:namedview
     id="namedview5"
     pagecolor="#ffffff"
     bordercolor="#000000"
     borderopacity="0.25"
     inkscape:showpageshadow="2"
     inkscape:pageopacity="0.0"
     inkscape:pagecheckerboard="0"
     inkscape:deskcolor="#d1d1d1"
     inkscape:zoom="4.4821429"
     inkscape:cx="57.115538"
     inkscape:cy="57.115538"
     inkscape:window-width="1280"
     inkscape:window-height="698"
     inkscape:window-x="-6"
     inkscape:window-y="-6"
     inkscape:window-maximized="1"
     inkscape:current-layer="svg5" />
  <g
     transform="translate(57.133858,57.133858)"
     id="g4"
     style="stroke-width:2.26772;stroke-dasharray:none">
    <path
       d="M 39.6,-39.6 Q 56,-23.2 56,0 56,23.2 39.6,39.6 23.2,56 0,56 -23.2,56 -39.6,39.6 -56,23.2 -56,0 -56,-23.2 -39.6,-39.6 -23.2,-56 0,-56 q 23.2,0 39.6,16.4"
       fill="url(#gradient0)"
       fill-rule="evenodd"
       stroke="none"
       id="path1"
       style="fill:url(#gradient0);stroke-width:2.26772;stroke-dasharray:none" />
    <path
       d="M 39.6,-39.6 Q 56,-23.2 56,0 56,23.2 39.6,39.6 23.2,56 0,56 -23.2,56 -39.6,39.6 -56,23.2 -56,0 -56,-23.2 -39.6,-39.6 -23.2,-56 0,-56 q 23.2,0 39.6,16.4 z"
       fill="none"
       stroke="#ff0000"
       stroke-linecap="round"
       stroke-linejoin="round"
       stroke-width="0.05"
       id="path2"
       style="stroke-width:2.26772;stroke-dasharray:none" />
    <path
       d="m 18.55,-41.1 7.45,4.2 -0.4,3.7 q -0.65,4.65 -1.9,9.75 -4,16.35 -12.65,31 -8.65,14.6 -19.5,24.95 -5.45,5.2 -9.1,7.45 L -25,35.75 q 0.65,-7.1 2.5,-16.3 3.75,-18.4 9.95,-29.05 6.25,-10.7 19.3,-22.15 4.05,-3.65 8.35,-6.85 l 3.45,-2.5"
       fill="#ffff00"
       fill-rule="evenodd"
       stroke="none"
       id="path3"
       style="stroke-width:2.26772;stroke-dasharray:none" />
    <path
       d="m 18.55,-41.1 7.45,4.2 -0.4,3.7 q -0.65,4.65 -1.9,9.75 -4,16.35 -12.65,31 -8.65,14.6 -19.5,24.95 -5.45,5.2 -9.1,7.45 L -25,35.75 q 0.65,-7.1 2.5,-16.3 3.75,-18.4 9.95,-29.05 6.25,-10.7 19.3,-22.15 4.05,-3.65 8.35,-6.85 z"
       fill="none"
       stroke="#ffff00"
       stroke-linecap="round"
       stroke-linejoin="round"
       stroke-width="2.0"
       id="path4"
       style="stroke-width:2.26772;stroke-dasharray:none" />
  </g>
  <defs
     id="defs5">
    <radialGradient
       cx="0"
       cy="0"
       gradientTransform="scale(0.0696)"
       gradientUnits="userSpaceOnUse"
       id="gradient0"
       r="819.20001"
       spreadMethod="pad">
      <stop
         offset="0.0"
         stop-color="#ff0000"
         id="stop4" />
      <stop
         offset="1.0"
         stop-color="#ff0000"
         stop-opacity="0.0"
         id="stop5" />
    </radialGradient>
  </defs>
</svg>
