<?xml version="1.0" encoding="UTF-8" standalone="no"?>
<svg
   ffdec:objectType="shape"
   height="114.26772"
   width="114.26772"
   version="1.1"
   id="svg9"
   sodipodi:docname="invert_others.svg"
   inkscape:version="1.3 (0e150ed6c4, 2023-07-21)"
   xmlns:inkscape="http://www.inkscape.org/namespaces/inkscape"
   xmlns:sodipodi="http://sodipodi.sourceforge.net/DTD/sodipodi-0.dtd"
   xmlns="http://www.w3.org/2000/svg"
   xmlns:svg="http://www.w3.org/2000/svg"
   xmlns:ffdec="https://www.free-decompiler.com/flash">
  <sodipodi:namedview
     id="namedview9"
     pagecolor="#ffffff"
     bordercolor="#000000"
     borderopacity="0.25"
     inkscape:showpageshadow="2"
     inkscape:pageopacity="0.0"
     inkscape:pagecheckerboard="0"
     inkscape:deskcolor="#d1d1d1"
     inkscape:zoom="4.4821429"
     inkscape:cx="57.115538"
     inkscape:cy="57.115538"
     inkscape:window-width="1280"
     inkscape:window-height="698"
     inkscape:window-x="-6"
     inkscape:window-y="-6"
     inkscape:window-maximized="1"
     inkscape:current-layer="svg9" />
  <g
     transform="translate(57.133858,57.133858)"
     id="g8"
     style="stroke-width:2.26772;stroke-dasharray:none">
    <path
       d="M 39.6,-39.6 Q 56,-23.2 56,0 56,23.2 39.6,39.6 23.2,56 0,56 -23.2,56 -39.6,39.6 -56,23.2 -56,0 -56,-23.2 -39.6,-39.6 -23.2,-56 0,-56 q 23.2,0 39.6,16.4"
       fill="url(#gradient0)"
       fill-rule="evenodd"
       stroke="none"
       id="path1"
       style="fill:url(#gradient0);stroke-width:2.26772;stroke-dasharray:none" />
    <path
       d="M 39.6,-39.6 Q 56,-23.2 56,0 56,23.2 39.6,39.6 23.2,56 0,56 -23.2,56 -39.6,39.6 -56,23.2 -56,0 -56,-23.2 -39.6,-39.6 -23.2,-56 0,-56 q 23.2,0 39.6,16.4 z"
       fill="none"
       stroke="#ff0000"
       stroke-linecap="round"
       stroke-linejoin="round"
       stroke-width="0.05"
       id="path2"
       style="stroke-width:2.26772;stroke-dasharray:none" />
    <path
       d="m 25.2,-13.55 -46.5,0.3"
       fill="none"
       stroke="#ffff00"
       stroke-linecap="butt"
       stroke-linejoin="miter-clip"
       stroke-miterlimit="4"
       stroke-width="4.0"
       id="path3"
       style="stroke-width:2.26772;stroke-dasharray:none" />
    <path
       d="m -31.05,-13.3 q 10.7,-4.15 17,-9.6 l -3.4,9.45 3.5,9.6 q -6.2,-5.4 -17.1,-9.45"
       fill="#ffff00"
       fill-rule="evenodd"
       stroke="none"
       id="path4"
       style="stroke-width:2.26772;stroke-dasharray:none" />
    <path
       d="m -31.05,-13.3 q 10.7,-4.15 17,-9.6 l -3.4,9.45 3.5,9.6 q -6.2,-5.4 -17.1,-9.45 z"
       fill="none"
       stroke="#ffff00"
       stroke-linecap="round"
       stroke-linejoin="round"
       stroke-width="2.0"
       id="path5"
       style="stroke-width:2.26772;stroke-dasharray:none" />
    <path
       d="m -26,15.35 46.5,-0.3"
       fill="none"
       stroke="#ffff00"
       stroke-linecap="butt"
       stroke-linejoin="miter-clip"
       stroke-miterlimit="4"
       stroke-width="4.0"
       id="path6"
       style="stroke-width:2.26772;stroke-dasharray:none" />
    <path
       d="m 30.25,15.1 q -10.7,4.15 -17,9.6 l 3.4,-9.45 -3.5,-9.6 q 6.2,5.4 17.1,9.45"
       fill="#ffff00"
       fill-rule="evenodd"
       stroke="none"
       id="path7"
       style="stroke-width:2.26772;stroke-dasharray:none" />
    <path
       d="m 30.25,15.1 q -10.7,4.15 -17,9.6 l 3.4,-9.45 -3.5,-9.6 q 6.2,5.4 17.1,9.45 z"
       fill="none"
       stroke="#ffff00"
       stroke-linecap="round"
       stroke-linejoin="round"
       stroke-width="2.0"
       id="path8"
       style="stroke-width:2.26772;stroke-dasharray:none" />
  </g>
  <defs
     id="defs9">
    <radialGradient
       cx="0"
       cy="0"
       gradientTransform="scale(0.0696)"
       gradientUnits="userSpaceOnUse"
       id="gradient0"
       r="819.20001"
       spreadMethod="pad">
      <stop
         offset="0.0"
         stop-color="#ff0000"
         id="stop8" />
      <stop
         offset="1.0"
         stop-color="#ff0000"
         stop-opacity="0.0"
         id="stop9" />
    </radialGradient>
  </defs>
</svg>
