<?xml version="1.0" encoding="UTF-8" standalone="no"?>
<svg
   ffdec:objectType="frame"
   height="114.26772"
   width="114.26772"
   version="1.1"
   id="svg6"
   sodipodi:docname="reduce_self.svg"
   inkscape:version="1.3 (0e150ed6c4, 2023-07-21)"
   xmlns:inkscape="http://www.inkscape.org/namespaces/inkscape"
   xmlns:sodipodi="http://sodipodi.sourceforge.net/DTD/sodipodi-0.dtd"
   xmlns:xlink="http://www.w3.org/1999/xlink"
   xmlns="http://www.w3.org/2000/svg"
   xmlns:svg="http://www.w3.org/2000/svg"
   xmlns:ffdec="https://www.free-decompiler.com/flash">
  <sodipodi:namedview
     id="namedview6"
     pagecolor="#ffffff"
     bordercolor="#000000"
     borderopacity="0.25"
     inkscape:showpageshadow="2"
     inkscape:pageopacity="0.0"
     inkscape:pagecheckerboard="0"
     inkscape:deskcolor="#d1d1d1"
     showgrid="false"
     inkscape:zoom="2.625"
     inkscape:cx="34.666667"
     inkscape:cy="58.285714"
     inkscape:window-width="1280"
     inkscape:window-height="698"
     inkscape:window-x="-6"
     inkscape:window-y="-6"
     inkscape:window-maximized="1"
     inkscape:current-layer="g4" />
  <g
     transform="translate(56.000002,56)"
     id="g4"
     style="stroke-width:1.00157;stroke-dasharray:none">
    <path
       d="m 40.733858,-38.46614 q 16.4,16.4 16.4,39.6 0,23.2 -16.4,39.6 -16.4,16.4 -39.6,16.4 -23.2,0 -39.6,-16.4 -16.4,-16.4 -16.4,-39.6 0,-23.2 16.4,-39.6 16.4,-16.4 39.6,-16.4 23.2,0 39.6,16.4"
       fill="url(#gradient0)"
       fill-rule="evenodd"
       stroke="none"
       id="path1"
       style="fill:url(#gradient0-6);stroke-width:2.26772;stroke-dasharray:none" />
    <path
       d="m 40.733858,-38.46614 q 16.4,16.4 16.4,39.6 0,23.2 -16.4,39.6 -16.4,16.4 -39.6,16.4 -23.2,0 -39.6,-16.4 -16.4,-16.4 -16.4,-39.6 0,-23.2 16.4,-39.6 16.4,-16.4 39.6,-16.4 23.2,0 39.6,16.4 z"
       fill="none"
       stroke="#00ff00"
       stroke-linecap="round"
       stroke-linejoin="round"
       stroke-width="0.05"
       id="path2"
       style="stroke-width:2.26772;stroke-dasharray:none" />
    <use
       ffdec:characterId="23"
       height="50.900002"
       transform="matrix(0.7479,-0.099,0.099,0.7479,-27.85,-5.1)"
       width="42.75"
       xlink:href="#shape1"
       id="use2"
       style="stroke-width:1.3276;stroke-dasharray:none" />
    <use
       ffdec:characterId="23"
       height="50.900002"
       transform="matrix(0.3394,0.0178,-0.0178,0.3394,-3.9,-32.15)"
       width="42.75"
       xlink:href="#shape1"
       id="use3"
       style="stroke-width:2.94697;stroke-dasharray:none" />
    <use
       ffdec:characterId="23"
       height="50.900002"
       transform="matrix(0.2059,0.07,-0.07,0.2059,19.75,-36.5)"
       width="42.75"
       xlink:href="#shape1"
       id="use4"
       style="stroke-width:4.6055;stroke-dasharray:none" />
  </g>
  <defs
     id="defs6">
    <g
       id="shape0"
       transform="translate(56,56)">
      <path
         d="M 39.6,-39.6 Q 56,-23.2 56,0 56,23.2 39.6,39.6 23.2,56 0,56 -23.2,56 -39.6,39.6 -56,23.2 -56,0 -56,-23.2 -39.6,-39.6 -23.2,-56 0,-56 q 23.2,0 39.6,16.4"
         fill="url(#gradient0)"
         fill-rule="evenodd"
         stroke="none"
         id="path4" />
      <path
         d="M 39.6,-39.6 Q 56,-23.2 56,0 56,23.2 39.6,39.6 23.2,56 0,56 -23.2,56 -39.6,39.6 -56,23.2 -56,0 -56,-23.2 -39.6,-39.6 -23.2,-56 0,-56 q 23.2,0 39.6,16.4 z"
         fill="none"
         stroke="#00ff00"
         stroke-linecap="round"
         stroke-linejoin="round"
         stroke-width="0.05"
         id="path5" />
    </g>
    <radialGradient
       cx="0"
       cy="0"
       gradientTransform="scale(0.0696)"
       gradientUnits="userSpaceOnUse"
       id="gradient0"
       r="819.20001"
       spreadMethod="pad">
      <stop
         offset="0.0"
         stop-color="#00ff00"
         id="stop5" />
      <stop
         offset="1.0"
         stop-color="#00ff00"
         stop-opacity="0.0"
         id="stop6" />
    </radialGradient>
    <g
       id="shape1">
      <path
         d="M 41.35,9.7 16,41.05 H 42.75 V 50.9 H 0 V 41.35 L 25.35,9.85 H 1.2 V 0 h 40.15 v 9.7"
         fill="#ffff00"
         fill-opacity="0.929412"
         fill-rule="evenodd"
         stroke="none"
         id="path6" />
    </g>
    <radialGradient
       cx="0"
       cy="0"
       gradientTransform="matrix(0.0696,0,0,0.0696,1.133858,1.13386)"
       gradientUnits="userSpaceOnUse"
       id="gradient0-6"
       r="819.20001"
       spreadMethod="pad">
      <stop
         offset="0.0"
         stop-color="#00ff00"
         id="stop4" />
      <stop
         offset="1.0"
         stop-color="#00ff00"
         stop-opacity="0.0"
         id="stop5-3" />
    </radialGradient>
  </defs>
</svg>
