<?xml version="1.0" encoding="UTF-8" standalone="no"?>
<svg
   ffdec:objectType="shape"
   height="114.26772"
   width="114.26772"
   version="1.1"
   id="svg12"
   sodipodi:docname="surprise.svg"
   inkscape:version="1.3 (0e150ed6c4, 2023-07-21)"
   xmlns:inkscape="http://www.inkscape.org/namespaces/inkscape"
   xmlns:sodipodi="http://sodipodi.sourceforge.net/DTD/sodipodi-0.dtd"
   xmlns="http://www.w3.org/2000/svg"
   xmlns:svg="http://www.w3.org/2000/svg"
   xmlns:ffdec="https://www.free-decompiler.com/flash">
  <sodipodi:namedview
     id="namedview12"
     pagecolor="#ffffff"
     bordercolor="#000000"
     borderopacity="0.25"
     inkscape:showpageshadow="2"
     inkscape:pageopacity="0.0"
     inkscape:pagecheckerboard="0"
     inkscape:deskcolor="#d1d1d1"
     inkscape:zoom="4.4821429"
     inkscape:cx="57.115538"
     inkscape:cy="57.115538"
     inkscape:window-width="1280"
     inkscape:window-height="698"
     inkscape:window-x="-6"
     inkscape:window-y="-6"
     inkscape:window-maximized="1"
     inkscape:current-layer="svg12" />
  <g
     transform="translate(57.133858,57.133858)"
     id="g7"
     style="stroke-width:2.26772;stroke-dasharray:none">
    <path
       d="m -51.45,22.5 -0.15,0.15 Q -56,12.45 -56,0.45 q 0,-23.2 16.4,-39.6 16.4,-16.4 39.6,-16.4 13.5,0 24.75,5.55 l -0.85,0.9 -75.35,71.6"
       fill="url(#gradient0)"
       fill-rule="evenodd"
       stroke="none"
       id="path1"
       style="fill:url(#gradient0);stroke-width:2.26772;stroke-dasharray:none" />
    <path
       d="M 54.05,-15.2 Q 56,-8 56,0 56,23.2 39.6,39.6 23.2,56 0,56 -13.1,56 -24,50.8 l 78.05,-66"
       fill="url(#gradient1)"
       fill-rule="evenodd"
       stroke="none"
       id="path2"
       style="fill:url(#gradient1);stroke-width:2.26772;stroke-dasharray:none" />
    <path
       d="m 23.9,-49.1 1.15,-1.15 q 7.85,3.95 14.55,10.65 10.75,10.75 14.45,24.4 L -24,50.8 h -0.05 Q -32.45,46.75 -39.6,39.6 -47.4,31.8 -51.45,22.5 L 23.9,-49.1"
       fill="url(#gradient2)"
       fill-rule="evenodd"
       stroke="none"
       id="path3"
       style="fill:url(#gradient2);stroke-width:2.26772;stroke-dasharray:none" />
    <path
       d="M 56,0 Q 56,23.2 39.6,39.6 23.2,56 0,56 -23.2,56 -39.6,39.6 -56,23.2 -56,0 -56,-23.2 -39.6,-39.6 -23.2,-56 0,-56 23.2,-56 39.6,-39.6 56,-23.2 56,0 Z"
       fill="none"
       stroke="#0000ff"
       stroke-linecap="round"
       stroke-linejoin="round"
       stroke-width="0.05"
       id="path4"
       style="stroke-width:2.26772;stroke-dasharray:none" />
    <path
       d="m -16.05,28.05 q 0.6,-0.6 1.95,-0.85 l 2.9,-0.1 q 1,1 0.55,2.95 -0.45,1.85 -1.4,2.8 -1,1 -2.4,1.2 -1.2,0.1 -2.15,-0.85 -0.8,-0.8 -0.35,-2.95 l 0.1,-0.7 q 0,-0.7 0.8,-1.5 m -14.7,-28.3 q 1.8,-2 3.65,-2.25 2.95,-0.65 4.55,-0.05 1.55,0.55 3.85,2.75 2.5,2.5 3,5.1 0.65,2.35 -0.05,4.45 -1.2,3 -3.5,7.6 l 2.05,3.55 q 0.65,1.05 0.5,2 -0.1,1 -1.6,2.5 l -1.45,0.05 -1.65,-1.15 -1.2,-1.7 -1.45,-3.95 0.45,-2.85 3.05,-7.25 q 0.35,-0.85 -0.1,-2 -0.4,-1.2 -1.2,-2 l -1.8,-1.3 -1.65,-0.75 -1.3,0.4 -1.4,1 q -1.8,1.8 -2,2.9 -0.15,1.05 0.15,1.65 1.3,1.6 -1.1,4 l -2.95,0.05 q -0.9,-0.9 -1.05,-2.95 -0.2,-2.1 0.5,-4.4 0.5,-1.9 1.8,-3.4 l 1.9,-2"
       fill="#ffff00"
       fill-rule="evenodd"
       stroke="none"
       id="path5"
       style="stroke-width:2.26772;stroke-dasharray:none" />
    <path
       d="m -1.8,9.6 q 0.25,-0.7 1.25,-1.25 l 2,-0.3 q 2,-1 2.9,0.65 0.75,1.2 -0.2,2.95 -0.95,1.75 -2.1,2.4 -1.2,0.7 -2.6,0.5 Q -1.8,14.4 -2.5,13.2 -3.05,12.25 -2,10.2 l 0.2,-0.6 m -5.65,-32.35 q 2.25,-1.45 4.05,-1.25 3.05,0.15 4.45,1.1 1.35,0.95 3,3.65 1.8,3.1 1.6,5.7 0,2.45 -1.25,4.3 l -5.3,6.4 1.05,4 Q 0.5,2.4 0.1,3.25 -0.25,4.15 -2.1,5.2 -2.65,5.5 -3.45,4.9 L -4.8,3.3 -5.5,1.4 l -0.35,-4.25 1.15,-2.6 4.8,-6.2 q 0.6,-0.7 0.45,-1.95 -0.1,-1.25 -0.7,-2.25 l -1.35,-1.7 -1.45,-1.2 -1.35,0.1 -1.6,0.6 q -2.2,1.25 -2.65,2.3 -0.45,0.9 -0.25,1.6 0.8,1.9 -2.15,3.55 -1.85,1.1 -2.85,-0.65 -0.65,-1.1 -0.25,-3.15 0.35,-2.05 1.65,-4.15 l -0.05,0.05 q 1,-1.8 2.65,-2.85 l 2.35,-1.4"
       fill="#ffff00"
       fill-rule="evenodd"
       stroke="none"
       id="path6"
       style="stroke-width:2.26772;stroke-dasharray:none" />
    <path
       d="m 22.95,-1.65 2.05,0.2 q 2.15,-0.4 2.65,1.35 Q 28,1.35 26.6,2.7 25.3,4.15 23.95,4.45 l -2.6,-0.1 q -1.15,-0.55 -1.5,-1.9 -0.3,-1 1.2,-2.7 l 0.4,-0.5 q 0.4,-0.6 1.5,-0.9 M 28.6,-33.7 q 2.9,0.95 3.95,2.25 1.1,1.25 2,4.3 0.9,3.45 0.1,5.9 -0.65,2.45 -2.35,3.85 -2.55,2.05 -6.85,4.85 -0.15,1.95 0.1,4.1 0,1.3 -0.7,1.95 -0.5,0.85 -2.55,1.4 -0.65,0.1 -1.2,-0.65 -0.6,-0.85 -0.9,-1.8 l -0.25,-2.1 0.8,-4.2 1.8,-2.25 6.2,-4.7 q 0.75,-0.6 0.9,-1.8 0.3,-1.25 0,-2.3 l -0.95,-2.05 -1,-1.5 -1.4,-0.3 -1.65,0.25 q -2.4,0.6 -3.2,1.5 -0.65,0.75 -0.65,1.4 0.3,2.05 -2.95,2.95 -2.1,0.55 -2.65,-1.45 -0.3,-1.2 0.6,-3.05 0.85,-1.9 2.65,-3.55 H 18.4 q 1.45,-1.45 3.3,-2.1 l 2.65,-0.75 4.25,-0.15"
       fill="#ffff00"
       fill-rule="evenodd"
       stroke="none"
       id="path7"
       style="stroke-width:2.26772;stroke-dasharray:none" />
  </g>
  <defs
     id="defs12">
    <radialGradient
       cx="0"
       cy="0"
       gradientTransform="matrix(0.0696,0,0,0.0696,0,0.45)"
       gradientUnits="userSpaceOnUse"
       id="gradient0"
       r="819.20001"
       spreadMethod="pad">
      <stop
         offset="0.0"
         stop-color="#0000ff"
         id="stop7" />
      <stop
         offset="1.0"
         stop-color="#0000ff"
         stop-opacity="0.0"
         id="stop8" />
    </radialGradient>
    <radialGradient
       cx="0"
       cy="0"
       gradientTransform="scale(0.0696)"
       gradientUnits="userSpaceOnUse"
       id="gradient1"
       r="819.20001"
       spreadMethod="pad">
      <stop
         offset="0.0"
         stop-color="#00ff00"
         id="stop9" />
      <stop
         offset="1.0"
         stop-color="#00ff00"
         stop-opacity="0.0"
         id="stop10" />
    </radialGradient>
    <radialGradient
       cx="0"
       cy="0"
       gradientTransform="scale(0.0696)"
       gradientUnits="userSpaceOnUse"
       id="gradient2"
       r="819.20001"
       spreadMethod="pad">
      <stop
         offset="0.0"
         stop-color="#ff0000"
         id="stop11" />
      <stop
         offset="1.0"
         stop-color="#ff0000"
         stop-opacity="0.0"
         id="stop12" />
    </radialGradient>
  </defs>
</svg>
