<?xml version="1.0" encoding="UTF-8" standalone="no"?>
<svg
   ffdec:objectType="shape"
   height="114.26772"
   width="114.26772"
   version="1.1"
   id="svg5"
   sodipodi:docname="untrail_self.svg"
   inkscape:version="1.3 (0e150ed6c4, 2023-07-21)"
   xmlns:inkscape="http://www.inkscape.org/namespaces/inkscape"
   xmlns:sodipodi="http://sodipodi.sourceforge.net/DTD/sodipodi-0.dtd"
   xmlns="http://www.w3.org/2000/svg"
   xmlns:svg="http://www.w3.org/2000/svg"
   xmlns:ffdec="https://www.free-decompiler.com/flash">
  <sodipodi:namedview
     id="namedview5"
     pagecolor="#ffffff"
     bordercolor="#000000"
     borderopacity="0.25"
     inkscape:showpageshadow="2"
     inkscape:pageopacity="0.0"
     inkscape:pagecheckerboard="0"
     inkscape:deskcolor="#d1d1d1"
     inkscape:zoom="4.4821429"
     inkscape:cx="57.115538"
     inkscape:cy="57.115538"
     inkscape:window-width="1280"
     inkscape:window-height="698"
     inkscape:window-x="-6"
     inkscape:window-y="-6"
     inkscape:window-maximized="1"
     inkscape:current-layer="svg5" />
  <g
     transform="translate(57.13386,57.13386)"
     id="g4"
     style="stroke-width:2.26772;stroke-dasharray:none">
    <path
       d="M 39.6,-39.6 Q 56,-23.2 56,0 56,23.2 39.6,39.6 23.2,56 0,56 -23.2,56 -39.6,39.6 -56,23.2 -56,0 -56,-23.2 -39.6,-39.6 -23.2,-56 0,-56 q 23.2,0 39.6,16.4"
       fill="url(#gradient0)"
       fill-rule="evenodd"
       stroke="none"
       id="path1"
       style="fill:url(#gradient0);stroke-width:2.26772;stroke-dasharray:none" />
    <path
       d="M 39.6,-39.6 Q 56,-23.2 56,0 56,23.2 39.6,39.6 23.2,56 0,56 -23.2,56 -39.6,39.6 -56,23.2 -56,0 -56,-23.2 -39.6,-39.6 -23.2,-56 0,-56 q 23.2,0 39.6,16.4 z"
       fill="none"
       stroke="#00ff00"
       stroke-linecap="round"
       stroke-linejoin="round"
       stroke-width="0.05"
       id="path2"
       style="stroke-width:2.26772;stroke-dasharray:none" />
    <path
       d="m 41.15,0 q 0,5.8 -12.2,9.9 -12.15,4.15 -29.4,4.15 -17.25,0 -29.45,-4.15 -12.15,-4.1 -12.15,-9.9 0,-5.8 12.15,-9.95 12.2,-4.1 29.45,-4.1 17.25,0 29.4,4.1 12.2,4.15 12.2,9.95 z"
       fill="none"
       stroke="#000000"
       stroke-linecap="round"
       stroke-linejoin="round"
       stroke-width="4.0"
       id="path3"
       style="stroke-width:2.26772;stroke-dasharray:none" />
    <path
       d="M 6.65,30.8 -0.4,30.15 q -3.95,-0.95 -6.6,-4.9 -2.3,-3.4 -2.15,-7.85 1.5,-4.75 4.9,-7.5 L 5,2.35 Q 11.45,-2.95 10.45,-12.4 10.3,-13.9 9.6,-15.1 6.55,-20.65 1.95,-24.25 -4.2,-29 -10.9,-32 q -2.8,-1.25 -5.65,-2.15"
       fill="none"
       stroke="#ffff00"
       stroke-linecap="round"
       stroke-linejoin="round"
       stroke-width="4.0"
       id="path4"
       style="stroke-width:2.26772;stroke-dasharray:none" />
  </g>
  <defs
     id="defs5">
    <radialGradient
       cx="0"
       cy="0"
       gradientTransform="scale(0.0696)"
       gradientUnits="userSpaceOnUse"
       id="gradient0"
       r="819.20001"
       spreadMethod="pad">
      <stop
         offset="0.0"
         stop-color="#00ff00"
         id="stop4" />
      <stop
         offset="1.0"
         stop-color="#00ff00"
         stop-opacity="0.0"
         id="stop5" />
    </radialGradient>
  </defs>
</svg>
